<?xml version="1.0" standalone="no"?>
<!DOCTYPE svg PUBLIC "-//W3C//DTD SVG 1.1//EN" "http://www.w3.org/Graphics/SVG/1.1/DTD/svg11.dtd" >
<svg xmlns="http://www.w3.org/2000/svg">
<metadata></metadata>
<defs>
<font id="douginkmedium" horiz-adv-x="18" >
<font-face units-per-em="2048" ascent="1638" descent="-410" />
<missing-glyph horiz-adv-x="860" />
<glyph horiz-adv-x="0" />
<glyph unicode="&#xd;" horiz-adv-x="681" />
<glyph unicode=" "  horiz-adv-x="860" />
<glyph unicode="&#x09;" horiz-adv-x="860" />
<glyph unicode="&#xa0;" horiz-adv-x="860" />
<glyph unicode="!" horiz-adv-x="290" d="M20 319q0 35 29 64q31 31 83 25.5t95 -41.5q41 -33 42 -44.5t-29 -48.5q-35 -39 -88.5 -46t-92.5 18.5t-39 72.5zM23.5 933q13.5 335 68.5 587q20 86 34.5 102t70.5 16q76 0 75 -12q0 -6 -49 -153q-29 -84 -42 -185.5t-19 -312.5q-4 -147 -10.5 -223t-17.5 -126.5 t-29.5 -51.5t-49.5 4q-45 20 -31.5 355z" />
<glyph unicode="&#x22;" horiz-adv-x="567" d="M29 797q-23 127 10 445.5t72 363.5q35 45 66.5 25.5t31.5 -83.5q-6 -195 -34 -515t-42 -335q-31 -31 -61.5 -1t-42.5 100zM321 752.5q-6 44.5 3 134.5q20 213 54.5 403.5t61.5 229.5q35 51 73 45t36 -64q-4 -57 -41 -233q-35 -186 -35 -443q0 -90 -2 -137t-6 -75.5 t-10 -35t-19 -4.5q-16 4 -39.5 29t-42.5 57q-27 49 -33 93.5z" />
<glyph unicode="#" horiz-adv-x="1241" d="M23 629q-8 51 35.5 75.5t160.5 36.5q80 8 115 22.5t49 39.5q41 76 -45 71q-35 0 -90 -14q-76 -16 -103.5 -14t-50.5 22q-20 20 -22 38t12 42q10 27 53 43.5t142 32.5q72 12 125 28.5t57 26.5q25 80 94.5 263.5t83.5 199.5q23 29 47 21q76 -25 -29 -254q-37 -76 -52 -115 t-15 -64.5t14 -31.5t47 -6q66 0 92.5 39.5t65.5 197.5q55 213 94 213q16 0 37 -29q35 -45 18 -79q-23 -57 -52 -167t-21 -116q6 -8 155 20q10 2 29 7q119 27 137.5 22.5t14.5 -55.5q-2 -8 -2 -12q-6 -53 -24.5 -65.5t-113.5 -25.5q-274 -35 -295 -141q-12 -55 7.5 -68.5 t76.5 9.5q66 27 120 22.5t67 -37.5q18 -49 -22 -81.5t-144 -51.5q-117 -20 -155 -69.5t-52 -202.5q-16 -172 -76 -166q-16 2 -33 18q-23 20 -21.5 50t26.5 112q35 127 20.5 161t-96.5 19q-33 -6 -47.5 -11t-28.5 -14t-23.5 -37t-17.5 -57.5t-22 -95.5q-14 -74 -52.5 -109.5 t-68.5 -4.5q-20 23 12 141q35 106 35 133q0 18 -133 19q-86 0 -108.5 8t-26.5 41zM478 782.5q9 -10.5 79 -4.5q49 4 74 18.5t41 51.5q14 27 17 53.5t-3 32.5q-23 20 -95.5 -14.5t-92.5 -75.5q-29 -51 -20 -61.5z" />
<glyph unicode="$" horiz-adv-x="837" d="M37 1384q14 47 109.5 103.5t191.5 71.5q41 6 74 20.5t37 26.5q8 20 37.5 28t56 1t26.5 -25q0 -14 24.5 -40t59.5 -48q102 -63 147.5 -187.5t-14.5 -173.5q-31 -27 -55 -11.5t-24 60.5q0 43 -47.5 111t-69.5 55q-20 -16 -21 -213v-200l103 -74q139 -98 136 -240.5 t-146 -300.5q-68 -70 -78.5 -99.5t0.5 -107.5q8 -63 3 -92t-26 -47q-43 -35 -72.5 1t-35.5 128q-6 72 -16.5 90.5t-49.5 24.5q-94 10 -139 31.5t-101 82.5q-94 102 -74.5 178t140.5 76q59 0 84 -33.5t0 -80.5q-27 -47 -4.5 -70.5t86.5 -15.5l65 8v409l-151 78 q-176 94 -236.5 206t-19.5 269zM176 1223q27 -55 131.5 -120t129 -40.5t16.5 180.5q-6 117 -15.5 137.5t-60.5 26.5q-104 8 -169 -51.5t-32 -132.5zM571.5 598.5q1.5 -96.5 18.5 -106.5q18 -12 56 41t38 88q0 31 -41 68.5t-57 23.5q-16 -18 -14.5 -114.5z" />
<glyph unicode="%" horiz-adv-x="1196" d="M21.5 1153q-5.5 88 35.5 184q29 72 101 154t125 102q51 23 110.5 21t73.5 -25q6 -10 -4 -30.5t-33 -38.5q-39 -31 -41 -47.5t29 -81.5q51 -111 17 -245t-124 -181q-74 -37 -128 -28t-103 67q-53 61 -58.5 149zM111 387q0 16 32.5 68.5t77.5 105.5q106 131 252 348 q320 475 467 633q53 57 87 76.5t79 19.5q72 0 72 -26q0 -31 -91 -105q-178 -152 -538 -702q-127 -190 -163 -262t-48 -146q-6 -57 -19.5 -74.5t-52.5 -21.5q-61 -8 -108 18.5t-47 67.5zM142 1168.5q1 -35.5 44 -62.5q51 -33 85 3t34 122q0 98 -37 109.5t-88 -70.5 q-39 -66 -38 -101.5zM614.5 657q9.5 100 85.5 166q68 61 175.5 66.5t177.5 -49.5q41 -33 50 -66t9 -145q0 -111 -9 -147t-48 -72q-33 -33 -71 -43.5t-124 -12.5l-141 -2l-57 101q-57 104 -47.5 204zM748 639q0 -74 43 -119t98 -31q61 14 84 46t31 114l6 90l-90 4 q-172 14 -172 -104z" />
<glyph unicode="&#x26;" />
<glyph unicode="(" horiz-adv-x="710" d="M20 749.5q0 49.5 29 192.5q37 203 60 254q20 57 112 154.5t209 185.5q106 80 158.5 94.5t87.5 -26.5q25 -31 7.5 -57.5t-93.5 -76.5q-141 -90 -231.5 -188t-118.5 -195q-68 -219 -48.5 -360t132.5 -250q84 -80 105.5 -121t-5.5 -73q-70 -86 -229 82q-61 61 -94 115.5 t-54 127.5q-27 92 -27 141.5z" />
<glyph unicode=")" horiz-adv-x="585" d="M35 1533.5q-29 59.5 2 88.5q12 16 72 16q33 0 73.5 -31.5t106.5 -111.5q391 -459 233 -963q-35 -102 -77 -174.5t-136 -187.5q-90 -111 -135 -152t-72 -36q-90 14 -20 110q35 47 108 125q63 61 116.5 128t66.5 99q201 475 -217 930q-92 100 -121 159.5z" />
<glyph unicode="*" horiz-adv-x="903" d="M20 1434q0 78 43 81t146 -67q78 -55 102.5 -63.5t40.5 14.5q27 33 15 137l-13 102h174l-14 -114q-12 -113 4 -113q8 0 42 35t73 82q78 88 128 103.5t85 -40.5q16 -25 -6.5 -62.5t-108.5 -131.5q-59 -61 -99 -113.5t-36 -62.5q8 -25 113 -82q106 -61 141 -94t35 -78 q0 -80 -46 -85t-159 60q-139 82 -156 74q-8 -4 -7 -57.5t9 -118.5q12 -100 9 -139t-23 -60q-43 -43 -73.5 -15.5t-30.5 107.5q0 88 -14.5 144.5t-37.5 56.5q-18 0 -67 -82q-45 -80 -92 -74q-72 10 -73 57.5t64 147.5q84 129 105 143q37 23 0 60q-29 27 -125 86t-122 86.5 t-26 75.5z" />
<glyph unicode="+" horiz-adv-x="1030" d="M23 950q-8 63 28.5 87t145.5 28q68 2 107.5 6t73.5 18.5t50 34t27.5 58.5t14.5 86t3 123q0 104 16 120t64 9q20 -4 29.5 -17.5t12.5 -51.5t3 -132v-193l176 7q125 4 156 -3.5t57 -48.5q23 -37 25 -59.5t-22.5 -37.5t-73 -22.5t-132.5 -11.5l-186 -6v-199q0 -117 -8 -165 t-31 -70q-80 -80 -102 78q-8 53 -11 135l-8 199l-90 -13q-74 -6 -205 -10q-78 0 -97 8t-23 43z" />
<glyph unicode="," horiz-adv-x="411" d="M26.5 727q-16.5 31 18.5 66q29 29 124 25.5t142 -36.5q51 -37 41 -80q-10 -35 21 -135q27 -78 18.5 -130t-59.5 -124q-41 -59 -125 -65t-131 45q-49 55 -31 92t98 37q55 0 75 9t22 38q6 49 -107 147q-90 80 -106.5 111z" />
<glyph unicode="-" horiz-adv-x="741" d="M20 742q4 54 41 77q43 27 326 10.5t315 -47.5q23 -20 21 -32.5t-31.5 -42t-87 -37.5t-244.5 -13q-285 -8 -313 13q-31 18 -27 72z" />
<glyph unicode="." horiz-adv-x="284" d="M59 426q-88 79 29 190q63 59 87 61.5t56 -44.5q82 -117 -22 -199q-55 -43 -82 -44t-68 36z" />
<glyph unicode="/" horiz-adv-x="780" d="M39 453q37 104 210 448t275 516q84 137 119 179t68 42q61 0 49 -49q-10 -45 -84 -162q-98 -150 -288.5 -537.5t-211.5 -477.5q-18 -86 -41.5 -116t-62.5 -15q-82 33 -33 172z" />
<glyph unicode="0" horiz-adv-x="860" d="M33 1010q-39 80 36.5 213t202.5 215q41 27 85 34t135 3q96 -6 139 -20.5t102 -61.5q63 -49 79.5 -81t25.5 -122q20 -240 -50.5 -486.5t-209.5 -414.5q-53 -66 -122 -89.5t-133.5 -4t-120 66.5t-89 128t-33.5 177q2 160 91 365t202 305q23 20 31 39.5t0.5 31t-29.5 11.5 q-33 0 -117 -88t-115 -154q-47 -109 -73 -108q-18 -2 -37 41zM258 751q-53 -206 41 -317q53 -63 101.5 -65t109.5 57q104 104 145 211.5t54 302.5q8 135 4.5 197t-19.5 80q-37 45 -84 27.5t-131 -105.5q-168 -182 -221 -388z" />
<glyph unicode="1" horiz-adv-x="434" d="M23 365q8 172 94 625.5t139 588.5q12 35 30.5 47t59.5 12q37 0 53.5 -9t16.5 -32q0 -41 -21 -61q-23 -27 -72 -229.5t-90 -440.5q-49 -285 -34 -442q14 -139 -9.5 -182t-109.5 -33q-47 6 -54.5 25.5t-2.5 130.5z" />
<glyph unicode="2" horiz-adv-x="741" d="M20 467q0 135 9.5 184t48.5 107q47 70 106.5 83t118.5 -34q55 -41 79 -22.5t44 120.5q16 88 59 279q18 82 27.5 161.5t6.5 129t-19 49.5q-31 0 -121 -117t-152 -236q-45 -86 -74.5 -123.5t-58.5 -41.5q-49 -8 -65 26q-14 39 82 209.5t192 276.5q82 90 112.5 105t131.5 15 q98 0 115.5 -8t17.5 -55q0 -61 -44 -260t-101 -391q-59 -203 -60 -246q0 -18 37 -71.5t88 -110.5q98 -102 115.5 -143.5t-17.5 -73.5q-70 -72 -149 40q-53 70 -98 63t-109 -97q-47 -66 -114.5 -118t-104.5 -52q-10 0 -57 73q-27 45 -36.5 100.5t-9.5 178.5zM141.5 479 q8.5 -117 36.5 -145q18 -12 44 1t53.5 53t39.5 87q16 57 10.5 77.5t-46.5 55.5q-57 45 -76 48t-45 -29q-25 -31 -16.5 -148z" />
<glyph unicode="3" horiz-adv-x="987" d="M21.5 1486q-9.5 85 21.5 120q53 66 111 0q16 -20 67 -24.5t191 1.5q145 10 203.5 4t107.5 -33q33 -16 57.5 -40.5t28.5 -40.5q12 -57 -10.5 -135t-65.5 -130l-55 -65l108 -80q272 -193 142 -447q-41 -82 -118 -131t-208 -77l-129 -27l-172 88q-172 86 -207 125 q-33 37 -26.5 77t45.5 66q25 14 45 7t57 -44q63 -57 164 -108q88 -43 174 -38t195 60q53 27 70.5 49.5t17.5 59.5q0 113 -95.5 173t-275.5 60q-154 0 -205 28t-20 95q10 25 30.5 42.5t40.5 17.5q61 0 149.5 37.5t153 91t64.5 90.5q0 61 -126 71.5t-298 -34.5 q-147 -39 -186 -17q-37 23 -46.5 108z" />
<glyph unicode="4" horiz-adv-x="942" d="M21.5 898q3.5 17 15.5 58t26.5 75t42.5 99q97 224 117 304q8 27 12.5 38t14.5 36.5t19.5 35.5t22.5 19.5t29.5 1t32.5 -28.5q29 -33 7.5 -117t-101.5 -268q-47 -109 -52 -137.5t19 -46.5q33 -25 168 -55.5t168 -18.5q10 2 47 93t76 208q39 123 78 216t53 101q31 20 69 -5 t38 -66q0 -29 -113 -375q-115 -338 -149 -547q-27 -166 -62 -241.5t-82 -67.5q-39 8 -44 93t24 233q35 160 24 178q-8 16 -71 16q-43 0 -244 41q-49 10 -75 16.5t-53.5 19.5t-37.5 20.5t-16.5 31t-3 40.5z" />
<glyph unicode="5" horiz-adv-x="1107" d="M20 1343v295h1070v-67q0 -90 -71 -98.5t-376 43.5q-217 35 -317 26l-113 -6l-12 -125q-12 -129 2 -143q6 -8 33.5 -3t58.5 21q43 23 94 29t148 0q240 -14 324.5 -134t35.5 -374q-53 -279 -176 -426q-31 -39 -64.5 -55.5t-95.5 -22.5q-154 -18 -267.5 58.5t-113.5 197.5 q0 84 28 127t99 66q55 18 77 14t60 -41q35 -31 43.5 -56.5t-0.5 -70.5q-8 -49 -1.5 -61.5t38.5 -12.5q66 0 146 99.5t102 210.5q18 86 15 115.5t-31 70.5q-61 84 -223 98.5t-312 -49.5q-147 -59 -174 -23.5t-27 297.5z" />
<glyph unicode="6" horiz-adv-x="1005" d="M25 496q14 184 58 308t157 302q133 199 238.5 288t279.5 144q92 29 140 29t73 -29q33 -39 3 -83t-87 -44q-66 0 -203 -68.5t-190 -128.5q-160 -178 -250 -383.5t-87 -375.5t103 -250q117 -90 328 18q84 41 108.5 67.5t44.5 102.5q20 74 19.5 100.5t-23.5 63.5 q-29 41 -96.5 65.5t-99.5 4.5q-23 -14 -23 -58q0 -33 -78 -107.5t-110 -74.5q-45 0 -66.5 41t-14.5 103.5t44 121.5q39 63 127 114.5t158 51.5q61 0 164.5 -53t136.5 -102q23 -35 22.5 -70t-27.5 -141q-33 -137 -57 -198.5t-59 -97.5t-109 -73q-53 -27 -125.5 -49.5 t-128.5 -28.5q-84 -8 -121.5 0t-95.5 47q-94 61 -131 166t-22 277z" />
<glyph unicode="7" horiz-adv-x="1189" d="M35 1282q-27 37 0 78q14 23 65.5 34t184.5 19q170 12 387 46t315 63q70 23 121 23.5t61 -21.5q16 -27 -58.5 -125.5t-182.5 -192.5q-133 -117 -191 -190q-43 -57 -45 -76.5t27 -71.5q39 -68 11 -103.5t-118 -35.5q-78 0 -129 -51t-61 -141q-16 -111 -25.5 -164.5 t-20.5 -88t-22.5 -41.5t-31.5 -12q-49 -6 -64 29q-10 23 10.5 149t50.5 228q4 18 -10 24.5t-57 0.5q-63 -4 -85 27.5t5 90.5q18 37 109.5 72t171.5 35q18 0 37.5 13t29.5 34q23 41 162 194q135 156 135 175q0 8 -18.5 10t-42.5 -2q-356 -70 -521 -77t-200 48z" />
<glyph unicode="8" horiz-adv-x="1032" d="M25 1282q-10 29 2 102q8 66 59 93t207 45q217 29 495 -27q80 -14 113 -32.5t53 -55.5q33 -61 33 -111q0 -57 -38 -117.5t-81 -70.5q-53 -16 -118 -82l-66 -68l109 -120q119 -131 163 -209l58 -88l-43 -115q-72 -199 -162 -135q-137 102 -434 164q-195 37 -217 75 q-25 39 24 127t154 191q80 80 90 101.5t-20 51.5q-41 45 -205 148q-164 104 -176 133zM270 1325q55 -53 173 -143t130 -90q27 0 107 106.5t65 120.5q-24 20 -141 45q-203 41 -309 10q-61 -16 -25 -49zM354 633q4 -12 40 -28.5t83 -26.5q133 -35 240 -72q131 -47 147 -27 q21 37 -194 279q-76 84 -103 84q-31 0 -126 -92.5t-87 -116.5z" />
<glyph unicode="9" horiz-adv-x="874" d="M55 1223q70 129 293 250q92 47 148 51q43 0 191.5 -66.5t166.5 -93.5q12 -20 -35 -156q-127 -369 -176 -710.5t8 -460.5q74 -162 -76 -162h-65l6 295q8 293 31 387q14 76 18 198t-10 138q-12 12 -100 -33q-150 -74 -246 -55.5t-152 135.5q-72 154 -2 283zM179.5 1164.5 q-29.5 -64.5 4.5 -132.5q37 -74 79 -87t132 22q231 86 256 256q8 63 0 82.5t-57 46.5q-80 41 -137.5 30.5t-149.5 -79.5q-98 -74 -127.5 -138.5z" />
<glyph unicode=":" horiz-adv-x="321" d="M20 438.5q2 55.5 41 100.5q29 35 81.5 27.5t93.5 -52.5q51 -53 39.5 -98t-89.5 -86l-86 -45l-47 55q-35 43 -33 98.5zM77.5 1045.5q-10.5 72.5 28.5 109.5q33 33 74 24.5t78 -55.5q92 -115 -8 -182q-39 -27 -57.5 -27t-57.5 27q-47 31 -57.5 103.5z" />
<glyph unicode=";" horiz-adv-x="421" d="M20.5 553q-3.5 50 14.5 68q23 23 84 14.5t125 -41.5q84 -45 126 -119t29 -162q-10 -78 -69.5 -150.5t-114.5 -72.5q-45 0 -97 52.5t-52 99.5q0 51 27.5 66.5t53.5 -21.5q29 -39 68 -33q76 16 72 84q-4 66 -70 100q-31 16 -67 17q-76 0 -103 28q-23 20 -26.5 70zM94 924 q-13 35 12 92q23 43 73 52t87 -26q31 -31 27 -105.5t-37 -88.5q-35 -10 -91 15.5t-71 60.5z" />
<glyph unicode="&#x3c;" horiz-adv-x="886" d="M25.5 1156q-13.5 34 0 52.5t43 28.5t85.5 16q127 14 243.5 54.5t155.5 81.5q41 45 61 45q23 0 82 45q63 51 107.5 39.5t58.5 -82.5q23 -109 -18 -157t-117 -3q-25 16 -50.5 10t-78.5 -39q-106 -57 -203 -86q-45 -14 -80.5 -31.5t-40.5 -27.5q-2 -12 27 -54t74 -90 q72 -78 110.5 -101t112.5 -34q84 -12 99.5 -24.5t15.5 -69.5v-80l-121 6q-123 6 -218 73t-224 233q-55 72 -83 116.5t-41.5 78.5z" />
<glyph unicode="=" horiz-adv-x="1327" d="M20.5 1162.5q-2.5 17.5 12.5 49.5q12 27 26.5 40.5t64.5 25.5t119.5 20.5t217.5 20.5q238 24 420 55q180 33 216 30t68 -52q45 -68 0 -99.5t-209 -48.5q-141 -14 -325 -39q-362 -57 -460.5 -64t-127.5 21q-20 23 -22.5 40.5zM84 760q0 25 4 40t19.5 28.5t38 19.5t67.5 11 t100.5 6t145.5 1q323 5 491 21q209 20 253 17t77 -40q31 -33 30 -46t-38 -48q-47 -51 -133 -49q-100 6 -543 -27q-395 -27 -461 -10q-47 12 -49 57q-2 8 -2 19z" />
<glyph unicode="&#x3e;" horiz-adv-x="874" d="M20 668q0 49 29 73.5t127 63.5q84 33 194.5 110.5t180.5 150.5t47 93q-23 23 -209 115q-78 41 -108.5 55t-58 21.5t-37 2.5t-27.5 -22q-27 -25 -43.5 -26.5t-36.5 14.5q-31 27 -34 122t26.5 124.5t65.5 24.5t116 -48q68 -37 334 -176q96 -51 174 -100t88 -64 q23 -39 -22.5 -89t-213.5 -175q-190 -139 -250 -186q-309 -236 -339 -113q-2 12 -3 29z" />
<glyph unicode="?" horiz-adv-x="772" d="M20 1638h734v-73q-4 -360 -361 -498q-6 -2 -16 -6q-45 -18 -62.5 -24.5t-38 -24t-23.5 -24.5t-4 -36.5t4 -52t17 -78.5q2 -8 2 -14q16 -68 14.5 -95.5t-20.5 -47.5q-27 -27 -65.5 -19t-48.5 43q-74 264 -69 380t95 116q74 0 186.5 39t153.5 80q45 41 75 119.5t15 113.5 q-10 27 -116.5 33t-227.5 -17l-92 -18v-135q0 -84 -7 -110.5t-36 -33.5q-47 -10 -63.5 26t-28.5 181zM170 469q6 14 24.5 22.5t38.5 4.5q29 -2 41.5 -17.5t12.5 -46.5t-12.5 -45t-41.5 -18q-41 -6 -60 24.5t-3 75.5z" />
<glyph unicode="@" horiz-adv-x="1120" d="M29 528.5q-37 219.5 75 493.5q74 182 171.5 275.5t238.5 113.5q152 23 249 -9t195 -132q143 -150 144 -398q0 -96 -23.5 -213.5t-48.5 -146.5q-20 -20 -20 -63q0 -31 -61.5 -117t-137.5 -164q-84 -82 -259 -75t-308 95q-178 121 -215 340.5zM178 729q-16 -135 6 -135 q4 0 11 2q12 6 25 31.5t20 60.5q12 78 74.5 184.5t121.5 147.5q72 51 157 70.5t146 -3.5q70 -23 88.5 -66.5t-2.5 -137.5q-23 -102 -14 -205q2 -59 13.5 -78.5t37.5 -19.5q55 0 85 81.5t22 195.5t-54 194q-23 41 -60.5 85t-70.5 64q-86 57 -216 45t-210 -86 q-63 -59 -115.5 -183t-64.5 -247zM328 360q0 -35 100 -61.5t188 -15.5q182 20 222 71q27 33 -47 52q-8 2 -21 4q-67 12 -90 63q-18 45 -33.5 48t-46.5 -32q-27 -33 -149 -73q-49 -14 -86 -31.5t-37 -24.5zM387 680q-2 -72 7 -85t57 -9q63 2 106 43q33 29 73 130t40 156 q0 59 -72 33q-51 -20 -115 -80q-61 -57 -77.5 -90t-18.5 -98z" />
<glyph unicode="A" horiz-adv-x="1345" d="M31 506q-11 19 -11 37q0 31 34 55q54 39 163 39q68 0 95.5 10t47.5 43q33 53 84 432q40 297 40 416q0 32 -3 51q-8 33 5.5 41t70.5 8q55 0 72.5 -8t17.5 -37q0 -66 320 -854q176 -434 290 -630q69 -121 69 -188q-1 -68 -75 -68q-41 0 -65.5 24.5t-71.5 110.5 q-74 135 -174 221t-262 156q-123 53 -151.5 59t-51.5 -21q-27 -39 -43 -151q-4 -45 -19 -85t-28 -52q-22 -18 -38 -18q-33 0 -38 77q-1 22 -1 49t1 60l8 161l-131 7q-78 4 -109.5 14t-45.5 41zM500 716v-14q0 -42 14 -53q44 -41 194 -96q113 -41 152 -41q13 0 17 4q3 4 3 13 q0 56 -124 319q-145 313 -160 313q-18 0 -18 -6t-46 -242q-30 -143 -32 -197z" />
<glyph unicode="B" horiz-adv-x="1056" d="M20 1638l97 -2q66 0 98.5 -22.5t116.5 -122.5q68 -84 126 -131t144 -90q131 -66 183.5 -133.5t52.5 -173.5q0 -63 11 -86t54 -43q80 -43 116 -151q22 -65 22 -131q1 -42 -9 -84q-24 -108 -98 -146q-53 -29 -217 -65t-252 -38h-32q-57 0 -69 6q-16 8 -16 60q0 49 17.5 60 t107.5 22q123 14 254 53t156 69q25 32 25 64q0 33 -28 61q-26 28 -65 49t-95 30q-30 5 -59 5l-53 -4q-116 -16 -148 -46q-18 -17 -19 -48q0 -23 10 -53q12 -39 12 -61q0 -6 -1 -10q-3 -24 -24 -44q-23 -22 -44 -22q-56 0 -101 157q-25 88 -49 230q-20 125 -77 344t-112 391z M348 1159q-9 -14 -9 -52q1 -41 11 -111q20 -134 43 -154q11 -10 36 -10q40 0 116 25q129 42 129 79q0 14 -28 45q-30 33 -75 68q-115 87 -162 109q-24 12 -40 11q-14 0 -21 -10z" />
<glyph unicode="C" horiz-adv-x="1038" d="M22 874q-2 43 -2 83q0 149 31 257q37 123 108 240t130 150q58 33 147 33h3q91 0 163 -35q33 -14 82 -56.5t86 -85.5q66 -74 85 -82t52 21q37 33 61 33q27 0 40 -41q12 -47 12 -162q0 -152 -19.5 -212.5t-68.5 -60.5q-41 0 -113 148q-91 184 -191 274q-77 70 -146 70 q-20 0 -38 -6q-115 -33 -193.5 -185.5t-78.5 -347.5q0 -76 14.5 -124t61.5 -126q166 -272 274 -272q170 0 303 182q84 113 105 113q23 0 47 -61q8 -21 8 -47q1 -59 -43 -140q-62 -117 -156 -170q-124 -74 -233 -74q-72 0 -137 33q-86 45 -183.5 146.5t-146.5 199.5 q-54 102 -64 305z" />
<glyph unicode="D" horiz-adv-x="964" d="M20 1450q0 12 15.5 27.5t38.5 23.5q44 19 74 19q10 0 18 -2q33 -8 98 -68q117 -100 275 -221q164 -125 251 -256t128 -314q29 -130 29 -227q0 -72 -16 -126q-38 -126 -179 -197q-104 -53 -194 -61q-14 -1 -26 -1q-71 0 -120 35q-41 28 -41 49q0 17 26 29q39 18 148 37 q170 29 198 63q14 12 27.5 59.5t20.5 98.5q2 29 2 54q-1 44 -7 74q-10 48 -51 130q-47 96 -131 197.5t-158 154.5q-47 34 -72 34q-14 0 -22 -11q-1 -1 -1 -5q-1 -36 63 -293q70 -286 104 -376q14 -30 13.5 -53.5t-13.5 -40.5q-28 -34 -55 -34q-35 0 -68 60q-33 61 -53 170 q-16 90 -84 311.5t-100 290.5q-37 78 -87.5 212t-50.5 157zM805 1085q0 9 7 18q9 11 16.5 11t16.5 -11q7 -9 8 -18q0 -3 -1 -5q-2 -12 -24 -11q-24 0 -23 16z" />
<glyph unicode="E" horiz-adv-x="888" d="M21 1380q2 54 24 76q35 35 266 60q252 28 364 28h23q106 -4 142 -43q29 -34 29 -88q0 -18 -3 -39q-14 -90 -40 -108q-7 -5 -16 -6q-23 0 -56 32q-35 33 -78 42t-168 9q-74 0 -111 -1t-71.5 -10t-47 -20.5t-20.5 -42t-7 -61t7 -94.5l12 -170l129 6q24 2 45 2q87 0 109 -28 q23 -25 23 -50q0 -18 -12 -36q-28 -43 -134 -101l-137 -73l4 -129q2 -133 37 -167q16 -16 45 -16q33 0 84 21q90 37 181 37t149.5 -33t58.5 -90q0 -63 -45 -84t-186 -21q-174 0 -259 -37q-55 -22 -77 -22q-3 1 -5 1q-20 4 -69 48q-66 63 -66 143q0 84 -45 334 q-41 229 -67 512q-12 145 -12 204v15z" />
<glyph unicode="F" horiz-adv-x="1026" d="M23 918q-2 8 -2 16q1 34 35 68q42 42 112 57q31 4 58.5 17.5t31.5 25.5q1 4 1 14q0 18 -4 56q-7 60 -22 122q-34 172 -34 256v88l405 -4l404 -8l-2 -119q-4 -102 -31 -146q-23 -37 -64 -37q-8 0 -16 1q-27 2 -37 19.5t-10 62.5q0 68 -35 90.5t-170 38.5q-148 17 -212 17 q-35 0 -44 -5q-14 -8 -10 -35q57 -371 88 -401q10 -10 66.5 -18.5t123.5 -10.5q96 -2 135 -10t56 -31q12 -20 12 -40t-12 -39q-16 -25 -56 -35t-133 -13q-8 0 -24 -2q-119 -3 -133 -41q-4 -10 -3 -36q0 -65 25 -226q4 -25 6 -37q16 -85 22 -155q4 -44 5 -63q0 -12 -2 -15 q-14 -21 -68 -21q-5 1 -11 1q-64 2 -89 26q-27 27 -27 96q0 61 -24.5 200.5t-44.5 193.5q-12 33 -36 41q-16 5 -56 5q-20 0 -47 -1q-28 -1 -48 -1q-36 0 -52 4q-24 7 -27 34z" />
<glyph unicode="G" horiz-adv-x="1871" d="M29 852q20 197 92 342q63 129 176 237.5t207 133.5q62 16 100 16q18 0 31 -4q63 -16 157.5 -78.5t168.5 -140.5q66 -68 79 -92.5t-4 -57.5q-16 -29 -41.5 -38t-85.5 -9q-70 0 -92 11.5t-47 62.5q-39 76 -87 126t-85 50q-154 0 -279.5 -178t-142.5 -420q-3 -39 -3 -74 q0 -127 34 -209q43 -106 172 -208q96 -80 131 -88q6 -2 14 -2q35 0 99 32q68 35 103.5 90.5t70.5 184.5q16 61 23 90.5t5 59.5t-11 39t-42 16q-29 5 -60 5h-10q-36 -1 -108 -8q-98 -6 -148 -6q-30 0 -42 2q-35 6 -76 47q-35 39 -39 54.5t18 38.5q14 14 57.5 26t88.5 17 q33 4 170 15t206 19q620 55 847 55q96 0 122 -10q55 -20 56 -80q0 -55 -52 -77q-51 -20 -275 -44t-366 -24q-106 0 -131.5 -9t-42.5 -50q-22 -51 -22 -123v-6q0 -131 -98.5 -307.5t-190.5 -212.5q-55 -20 -109 -20q-92 0 -182 58q-221 147 -303 318q-61 127 -61 301 q0 62 8 129z" />
<glyph unicode="H" horiz-adv-x="1693" d="M23 780q-2 10 -2 18q-1 37 33 63q42 32 149 52q53 8 99 24.5t55.5 27t23.5 99.5t25 200q31 303 79 321q16 6 43 -14q23 -18 29 -76.5t6 -222.5v-271h58q68 0 240.5 38t199.5 59q27 27 27 79q0 58 24 261l29 200h135l-12 -249q-7 -118 -6 -182q0 -74 8 -79q4 -2 14 -2 q33 0 131 19q59 10 104 10q47 -1 77 -11q62 -20 77 -87q5 -18 5 -33q0 -38 -32 -58q-45 -28 -188 -42q-66 -6 -119 -19.5t-63 -25.5q-10 -14 -23.5 -115.5t-19.5 -228.5q-8 -141 -15.5 -212t-25.5 -108q-17 -34 -39 -34h-3q-24 3 -71 32l-63 41l16 293q5 104 5 184v26 q-1 89 -7 91q-7 4 -29 4q-53 0 -195 -24q-202 -34 -222 -52q-12 -12 -11.5 -64.5t11.5 -146.5q12 -93 12 -149q0 -41 -6 -62q-14 -51 -84 -65q-17 -3 -32 -3q-48 0 -68 36q-24 47 -29 217l-2 200h-170q-109 0 -140.5 7.5t-37.5 33.5z" />
<glyph unicode="I" horiz-adv-x="1030" d="M23 1552q8 50 63 68q33 10 102 10q16 0 36 -1q98 -3 425 -27q183 -12 239 -47q36 -23 37 -66q0 -23 -10 -51q-16 -43 -41.5 -52.5t-138.5 -9.5h-157l-19 -98q-18 -113 -22 -352q-2 -74 -2 -122t3 -77t8 -40t13 -9q209 41 281 45q8 0 17 1q60 0 91 -28q42 -38 58 -118 q6 -31 6 -54q0 -39 -17 -59q-26 -32 -65 -32h-2q-40 1 -70 36q-22 27 -92 27q-129 0 -422 -90q-148 -44 -196 -52q-15 -3 -27 -2q-28 0 -45 13q-36 29 -36 63q0 22 14 46q38 62 134 79q2 0 9 2q41 6 58 9t43 14.5t34 14.5t22.5 25.5t16.5 35t10 54.5t10 69.5t8 94.5 q0 12 2 21q31 346 31 428v9q-2 70 -49 83q-49 14 -184 19q-107 2 -147 28q-32 21 -31 66q0 12 2 26z" />
<glyph unicode="J" horiz-adv-x="1239" d="M23 1303l6 73l387 2q554 4 671 78q30 20 57 20q22 0 42 -14q35 -24 35 -73q0 -11 -2 -23q-4 -41 -124 -98.5t-239 -77.5q-37 -4 -62.5 -16.5t-25.5 -24.5t24.5 -51t57.5 -78q68 -78 130 -198t62 -169q0 -35 -38 -237q-31 -156 -95.5 -283t-142.5 -182q-51 -41 -178 -57 q-49 -5 -86 -5q-60 0 -90 15q-61 35 -110.5 124t-69 194.5t-20.5 204.5v6q0 95 33 159q34 67 91 67q39 0 143.5 -112.5t118.5 -165.5q12 -47 12 -80q0 -16 -3 -29q-9 -39 -30.5 -52t-56.5 11.5t-65 81.5q-43 78 -74 78q-5 0 -10 -2q-17 -9 -17 -36t17 -72q8 -27 22 -54 q49 -90 137 -123q38 -15 74 -15q49 0 96 26q86 45 142 235q34 116 34 208q0 58 -14 106q-27 96 -137.5 218t-237.5 199q-88 51 -138 65.5t-140 14.5q-121 0 -158 28q-30 23 -30 83q0 14 2 31z" />
<glyph unicode="K" horiz-adv-x="1058" d="M20 465q0 23 97.5 525.5t120.5 598.5q6 29 23.5 39t53.5 10h7q53 0 57 -28v-10q0 -40 -25 -191q-4 -20 -6 -33q-48 -276 -48 -360q0 -32 7 -35q1 -1 3 -1q13 0 46 50q20 33 56 92q78 135 244 304q160 163 212 163h4q45 -8 54 -57v-7q0 -25 -25 -55q-29 -34 -104 -98 q-96 -78 -174 -173t-78 -134q0 -20 78 -156q104 -170 354 -360q39 -29 52 -55q11 -22 11 -51v-9q-8 -64 -61 -64q-30 0 -76 21q-152 70 -330 297q-6 8 -12 14q-47 66 -90 113t-55 49q-23 0 -81.5 -126t-74.5 -210q-16 -76 -72 -112q-32 -21 -63 -21q-23 0 -47 11 q-57 29 -58 59z" />
<glyph unicode="L" horiz-adv-x="811" d="M33 639q18 221 64.5 538.5t62.5 350.5q13 17 35 17q8 0 18 -3q25 -4 31 -36q3 -16 3 -48t-3 -82q-8 -186 -37 -368q-31 -184 -34 -334v-29q0 -123 24 -133q10 -8 55.5 -8t126.5 8q111 12 142.5 25.5t62.5 62.5q41 72 90 223q53 174 90 174q12 0 24 -12q4 -4 4 -20 q0 -57 -49 -267q-63 -268 -94 -297q-29 -29 -432 -79q-53 -7 -91 -7q-74 1 -90 27q-12 21 -13 102q0 73 10 195z" />
<glyph unicode="M" horiz-adv-x="1193" d="M20 342v14q0 140 103 631q35 171 67 223q20 34 48 33q16 0 34 -10q49 -29 232 -217q186 -197 207 -197q49 0 149 273q67 174 98 213q34 38 63 38h1q45 0 66.5 -94t35.5 -340q16 -336 41 -520q10 -87 10 -144q0 -44 -6 -70q-14 -60 -67 -60q-41 0 -66 28q-14 14 -55 310.5 t-41 377.5q0 18 -9 18q-13 0 -44 -40q-27 -35 -60 -92q-29 -51 -59.5 -88t-44.5 -37q-12 0 -83 62.5t-151 146.5q-83 86 -149 142q-61 52 -74 52h-2q-29 -20 -104 -503q-27 -176 -66 -205q-20 -12 -35 -12q-35 0 -39 67z" />
<glyph unicode="N" horiz-adv-x="1206" d="M20 465q0 43 48 217q76 279 116 672q8 88 19.5 113.5t44.5 29.5h6q44 0 93 -76q52 -82 245 -471q199 -403 213 -403q18 0 18 51q0 55 66 360q63 289 82 441q18 139 49 190q30 45 54 46h2q23 0 67 -42q35 -37 43 -103q2 -14 2 -26q0 -45 -23 -67q-45 -43 -136 -483.5 t-91 -620.5q0 -102 -47 -146q-30 -29 -55 -29q-14 0 -25 9q-33 25 -68 127q-29 92 -197.5 439t-213.5 409q-10 18 -23.5 27.5t-19.5 5.5q-10 -10 -58 -273q-31 -182 -54 -274t-47 -129t-60 -37q-50 0 -50 43z" />
<glyph unicode="O" horiz-adv-x="1169" d="M25 950q16 145 45 221q27 63 114.5 140t159.5 100q64 20 163 20q53 1 115 -5q180 -16 287 -68q90 -43 121 -74t70 -115q39 -82 47 -136q5 -31 5 -84q0 -40 -3 -91q-6 -150 -46 -256t-128 -201q-121 -130 -303 -130q-24 1 -49 3q-215 20 -394 195q-129 125 -174 231 q-34 80 -34 181q0 33 4 69zM180 815q20 -78 130 -185.5t198 -137.5q105 -36 172 -36q14 0 26 2q72 9 148 79q160 142 160 358q0 24 -2 49q-6 82 -23.5 120t-75.5 97q-89 88 -198 113q-111 20 -150 20q-166 -12 -254 -81.5t-118 -213.5q-17 -82 -17 -137q0 -27 4 -47z" />
<glyph unicode="P" horiz-adv-x="735" d="M25 1599q-3 9 -3 15q0 16 17 20q23 4 96 4h127l201 -198q113 -113 163 -177.5t66 -115.5q25 -86 25 -161q0 -81 -29 -150q-39 -90 -94 -125t-172 -39q-132 -6 -158 -41q-13 -17 -12 -56q0 -41 14 -106q17 -76 17 -119q1 -25 -5 -39q-16 -39 -90 -39q-76 0 -94 29 q-31 41 -31 267v28q2 74 7 250q7 192 7 326q0 112 -5 182q-10 156 -47 245zM240 1372q0 -121 2 -246q0 -86 4 -134t12 -85t29.5 -51t49.5 -19.5t77 -5.5q150 0 161 111q1 9 1 18q0 125 -156 293l-35 35q-101 98 -132 98q-11 0 -13 -14z" />
<glyph unicode="Q" horiz-adv-x="1228" d="M20 784q0 61 1.5 88t1.5 67t4 59.5t7 45t14 47t18.5 41t29 52.5t34.5 55.5t46 71.5q6 8 8 12q43 63 153.5 143t190.5 105q69 20 138 20q16 0 31 -1q85 -5 116 -36q76 -88 91 -254q2 -34 2 -69q0 -136 -44 -291q-80 -287 -80 -313q0 -10 38 -46t89 -77q78 -59 116 -76 q28 -14 57 -14q10 0 20 2q19 4 35 4q35 0 55 -22q18 -19 18 -52q0 -19 -6 -43q-20 -82 -53 -105q-16 -12 -38 -12q-24 0 -57 14q-61 25 -171 107q-166 125 -187 125q-18 0 -77 -59q-53 -57 -129 -105q-58 -35 -121 -35q-47 0 -97 19q-118 45 -200 176q-37 55 -45.5 113.5 t-8.5 242.5zM170 866q-1 -34 -1 -66q0 -165 35 -250q42 -101 148 -128q18 -5 33 -5q17 0 31 6q28 11 73 50q53 49 60.5 67.5t-14.5 57.5q-12 25 -50.5 62.5t-78.5 68.5q-98 68 -98 124q0 27 24 52q25 25 55 25q11 0 23 -4q43 -13 127 -86q102 -87 116 -87q1 0 2 1 q23 29 55.5 143.5t51.5 224.5q18 112 18 151v7q-2 35 -37 80q-50 69 -131 69q-38 0 -83 -15q-140 -48 -255 -218q-68 -98 -82 -145t-22 -185z" />
<glyph unicode="R" horiz-adv-x="1030" d="M22 245q-2 16 -1 35q-1 28 3 62q6 59 23 164q31 181 31 256q0 28 -4 41q-3 14 -3 29q0 42 21 92q20 39 34.5 166t25 271t16.5 181l12 96h99q74 0 83 -8t-8 -53q-22 -59 -64 -346q-33 -231 -34 -289q0 -14 2 -18q8 -15 40 -15q17 1 42 5q70 12 152.5 38.5t163.5 67.5 t114 78q76 80 80 158v8q0 74 -62 170q-72 113 -131 159l-57 45h127q84 0 111.5 -9t44.5 -40q29 -53 84 -121q35 -42 42 -72q3 -14 3 -35q0 -24 -4 -56q-25 -180 -160 -321.5t-316 -176.5q-35 -6 -59 -18.5t-24 -24.5q2 -10 36.5 -44t79.5 -71q219 -169 279 -245 q32 -41 32 -74q0 -28 -24 -51q-23 -26 -55 -26q-19 -1 -41 9q-60 24 -181 131q-169 150 -249 208q-61 44 -83 44q-7 0 -10 -4q-14 -23 -38 -188q-25 -166 -47 -218.5t-64 -52.5q-29 0 -43.5 12.5t-18.5 50.5z" />
<glyph unicode="S" horiz-adv-x="1097" d="M24 258q-4 14 -3 35q0 27 6 67q19 160 127 214q39 19 79 18q70 0 142 -60q64 -55 64 -109q0 -5 -1 -11q-6 -52 -47 -64q-9 -3 -19 -3q-32 0 -65 30q-34 31 -66 31q-10 0 -19 -2q-40 -12 -48 -68q-4 -37 9.5 -55.5t56.5 -40.5q49 -26 107 -26q104 0 235 85q102 66 127 66 q27 0 120 103t93 132q0 37 -104.5 94.5t-250.5 104.5q-63 20 -126.5 50t-84.5 48q-117 103 -139 279q-4 36 -4 70q0 132 68 233q29 41 62 79t56 48q61 34 128 34q58 0 119 -26q132 -55 233 -209q82 -131 99 -189q6 -19 6 -36q0 -34 -23 -58q-22 -22 -41 -22q-11 0 -21 8 q-27 20 -88 129q-68 119 -132.5 169t-146.5 50q-55 0 -78.5 -12t-43.5 -55q-34 -63 -34 -139q0 -71 32 -130q23 -47 100.5 -87t304.5 -124q266 -96 266 -229q0 -76 -65.5 -200t-132.5 -177q-109 -84 -359 -209q-88 -46 -176 -46q-34 0 -66 6q-120 24 -208 126q-40 47 -48 78 z" />
<glyph unicode="T" horiz-adv-x="1312" d="M20 1397q0 41 2.5 65.5t14.5 46t28.5 32.5t51.5 20.5t76.5 15.5t111.5 12q229 20 574 25l346 2l32 -74q38 -72 37 -193q0 -25 -1 -51q-9 -158 -60 -176q-10 -4 -20 -4q-29 0 -53 37q-32 49 -42 143l-16 123l-119 9q-29 1 -50 1q-41 -1 -53 -5q-20 -8 -26 -42 q-18 -80 -51 -884q-12 -289 -41 -334q-13 -16 -37 -16q-25 0 -61 18q-63 33 -77 81q-6 20 -6 57q0 49 11 128q23 184 42 576q11 225 11 325q0 74 -6 80q-10 10 -78 10q-61 0 -168 -8q-109 -8 -152.5 -15t-59 -17.5t-19.5 -34.5q-8 -51 -41 -76q-27 -20 -49.5 -12t-37 44.5 t-14.5 90.5z" />
<glyph unicode="U" horiz-adv-x="1079" d="M30 1060q22 255 74 427q37 113 53.5 132t75.5 19q72 0 120 -23.5t48 -58.5q0 -29 -84 -198q-61 -119 -73 -172q-9 -42 -8 -148v-59q2 -188 38.5 -325.5t87.5 -147.5q5 -1 11 -1q59 0 139 117q88 128 162 337.5t102 416.5q18 117 49 189.5t66 72.5q37 0 103.5 -51 t66.5 -80q0 -33 -70 -182q-79 -158 -99 -337q-9 -77 -8 -165q0 -116 15 -252q11 -96 17 -182q2 -38 3 -60q0 -28 -4 -30q-19 -31 -44 -31q-28 0 -64 39q-76 82 -100 238q-15 106 -44 106h-4q-12 -2 -24 -30q-25 -68 -151 -220.5t-165 -162.5q-18 -5 -35 -5q-76 1 -140 93 q-78 112 -111 321q-13 83 -13 193q-1 99 10 220z" />
<glyph unicode="V" horiz-adv-x="1146" d="M33 1487q17 17 39 17q14 0 28 -6q40 -16 62 -58q31 -74 69 -211q135 -492 199 -631q43 -98 43 -115q0 -25 31 -49q16 -10 27.5 -11t25.5 16.5t27.5 51t33.5 89.5q43 123 226 489q111 223 158 300t73 77q39 0 51 -32q5 -13 4 -28q0 -24 -10 -55q-18 -51 -61 -106 q-82 -111 -117 -201q-12 -25 -54 -124t-65 -148q-116 -267 -116 -378q0 -36 12 -55q12 -20 12 -46q0 -31 -16 -69q-29 -72 -85 -119q-42 -36 -76 -36q-12 0 -22 4q-82 29 -346 830q-124 375 -150 478q-13 54 -14 86q0 29 11 40z" />
<glyph unicode="W" horiz-adv-x="1505" d="M20 1326q-1 4 0 8q0 26 27 55q35 39 59 45q4 1 8 1q22 0 48 -29q31 -34 64.5 -105.5t88.5 -208.5q106 -260 129 -269h1q22 0 22 197q0 117 8 166t29 67q14 12 27.5 16.5t28.5 -5t32.5 -27.5t43.5 -57t54.5 -90.5t71.5 -128.5q59 -113 111.5 -196t62.5 -83q20 0 151.5 248 t131.5 287q0 29 64.5 155.5t98.5 167.5q24 28 47 28q10 0 21 -6q33 -18 37 -83v-12q0 -75 -68 -181q-47 -70 -93 -174t-98 -237.5t-77 -192.5q-70 -152 -80 -233q-24 -127 -136 -127q-14 0 -30 2q-43 4 -62.5 33.5t-54.5 142.5q-43 139 -88 234t-69 104q-12 4 -20.5 -6.5 t-16.5 -40t-14.5 -77.5t-12.5 -124q-11 -146 -41 -190q-23 -34 -75 -34q-15 0 -33 3q-29 4 -57.5 58t-86.5 222q-88 254 -111.5 315.5t-86.5 215.5q-52 116 -56 146z" />
<glyph unicode="X" horiz-adv-x="1054" d="M23 1282q2 43 16 59.5t51 18.5q8 1 15 1q27 1 49 -17q28 -22 86 -109q90 -129 176 -211l84 -80l78 92q74 92 161 228q72 121 138 211q53 68 94 68q5 0 10 -1q54 -8 54 -56v-6q-3 -54 -62 -122q-78 -90 -219 -301l-148 -221l135 -127q131 -129 205 -168q72 -37 72 -88 q0 -43 -46 -100.5t-81 -57.5q-12 0 -72.5 57.5t-136.5 136.5q-45 49 -91 96.5t-71.5 72t-30.5 24.5q-18 0 -74.5 -93t-56.5 -124q0 -57 -53 -93q-42 -29 -86 -29q-11 0 -23 2q-56 9 -61 65v6q0 61 121 215q125 162 125 180t-184 207q-121 125 -151 170q-24 36 -24 76 q0 9 1 18z" />
<glyph unicode="Y" horiz-adv-x="1064" d="M22 394q-1 4 -1 8q0 33 45 61q13 9 34 9q35 0 92 -25q91 -39 156 -107q25 -27 51.5 -47.5t34.5 -20.5q20 0 85 228.5t65 298.5q0 25 -28 81t-67 111q-4 4 -14 21q-260 367 -301 434q-29 47 -29 81q0 14 5 25q2 5 2 7q8 25 25.5 41t33.5 16q33 0 78 -36t45 -60 q0 -29 164 -262q157 -222 177 -222h1q20 12 135 252q51 100 95 174t59 78q8 3 17 3q24 0 50 -23q13 -15 13 -37q0 -15 -7 -35q-16 -47 -102 -221q-109 -223 -178.5 -425t-136.5 -495q-2 -8 -7 -24q-63 -272 -79.5 -318.5t-57.5 -50.5h-2q-7 -1 -13 -1q-22 0 -37 17 q-19 23 -52 97q-84 190 -287 297q-59 33 -64 70z" />
<glyph unicode="Z" horiz-adv-x="1130" d="M20 371q0 49 139.5 218t389.5 427q223 225 223 248q-10 6 -76.5 6t-182.5 -10.5t-214 -24.5q-57 -6 -83 -20.5t-38 -47.5q-16 -41 -46 -51t-55.5 14.5t-29.5 71.5q-2 17 -2 32q0 75 42 109q50 41 212 64q184 29 426 45q227 18 272 25h3q28 0 69 -34q43 -36 43 -65 q0 -10 -83 -98t-195 -199q-525 -512 -525 -598q0 -8 4 -12q27 -25 247 -40q100 -7 166 -7q79 0 110 10q49 23 49 76q-1 51 33 82q18 17 36 17q15 0 29 -13q25 -21 25 -174v-23q-2 -174 -29 -200q-13 -13 -30 -13q-18 0 -42 15q-45 27 -415 53q-113 8 -182.5 13t-127 13.5 t-86 14.5t-47 18.5t-24 24.5t-5.5 33z" />
<glyph unicode="[" />
<glyph unicode="]" />
<glyph unicode="a" horiz-adv-x="870" d="M22 580q-1 13 -1 25q0 113 73 259q88 180 200 255q88 59 196 59q29 0 59 -4l98 -15l27 96q26 92 53 129q20 25 38.5 25t57.5 -29q30 -19 30 -45q0 -25 -36 -143q-74 -250 -81 -390q-1 -18 -1 -36q0 -130 43 -311q4 -15 4 -29q0 -40 -34 -72q-33 -30 -59 -30 q-52 0 -81 112q-12 41 -17 60.5t-14.5 36t-15.5 19.5t-20.5 -3t-27.5 -18.5t-40 -36.5q-33 -33 -87 -67t-95 -50q-74 -27 -95.5 -27t-62.5 33q-101 75 -111 197zM176 621q0 -67 22 -81q8 -5 23 -5q27 0 78 14q49 12 82 42t76 99q74 117 102 197q16 45 16 65q-1 4 -1 6 q-2 20 -27 37q-37 26 -73 26q-10 0 -19 -2q-45 -9 -111 -69q-72 -63 -120 -156.5t-48 -172.5z" />
<glyph unicode="b" horiz-adv-x="829" d="M22 723q8 49 113 82q39 14 39 102q0 80 44 342t69 328q25 61 69 61q63 0 63 -70q0 -37 -18 -95q-27 -98 -59 -303q-25 -163 -25 -211q0 -12 2 -17q8 -17 70 -17q27 0 64 3q31 3 57 3q34 0 60 -5q46 -8 102 -37q90 -45 114.5 -96.5t24.5 -184.5q0 -291 -164 -438 q-59 -58 -89 -68q-15 -5 -40 -5q-23 0 -55 5q-129 23 -172 70t-70 197q-14 70 -38.5 113.5t-78.5 99.5q-83 85 -83 133q0 4 1 8zM338 627q-1 -19 -1 -38q1 -97 27 -171q32 -88 91 -117q39 -18 58 -18t42 18q71 59 107 220q15 66 15 112q0 66 -30 90q-33 25 -103 34 q-30 4 -59 4q-37 0 -71 -7q-47 -10 -58.5 -29.5t-17.5 -97.5z" />
<glyph unicode="c" horiz-adv-x="946" d="M22 784q12 180 113 297q74 83 165 107q44 12 99 12q58 0 127 -14q149 -30 181 -30h1q28 1 35 38q2 6 6.5 24.5t7.5 27.5t9 26.5t12 28t14.5 21.5t19.5 16t26 5q56 0 76 -49q15 -35 14 -107q0 -28 -2 -61q-6 -86 -18.5 -128t-41.5 -72l-49 -49l-117 63q-113 66 -235 78 q-39 4 -66 4q-31 0 -47 -5q-30 -9 -88 -61q-53 -47 -69.5 -77.5t-16.5 -85.5q0 -102 43 -179t121 -116q70 -35 138 -35q24 0 48 5q90 17 191 103q43 37 80 61.5t47 20.5q47 -15 47 -70q0 -43 -29 -111.5t-57.5 -98t-95.5 -60.5q-93 -41 -190 -41q-69 0 -140 20 q-172 50 -285 197q-76 101 -76 254q1 20 2 41z" />
<glyph unicode="d" horiz-adv-x="929" d="M25 463q-4 32 -4 65q0 60 14 126q22 102 69 153q74 90 129.5 114.5t198.5 34.5l186 11l-2 338v333h146l14 -266q23 -399 31 -501.5t22 -153.5q49 -150 71 -280q12 -70 12 -109q0 -34 -9 -45q-27 -31 -68.5 -31t-68.5 33q-27 32 -58 32q-7 1 -13 -1q-38 -8 -70 -64 q-43 -76 -133 -98q-34 -8 -72 -8q-63 0 -139 22q-225 68 -256 295zM174 547q0 -94 35 -148.5t110 -79.5q40 -13 75 -14q110 0 167 133q37 84 57 218q10 63 10 100q0 41 -12 47q-29 12 -112 22q-29 4 -57 4q-105 1 -179 -61q-94 -78 -94 -221z" />
<glyph unicode="e" horiz-adv-x="761" d="M74 831q55 35 80 138q20 80 100 181t141 124q43 19 67 19q6 1 11 -1q25 -6 82 -49q41 -33 65.5 -79t55.5 -144q31 -104 46 -171t19 -120q1 -16 1 -30q0 -31 -6 -49q-10 -26 -36 -40q-25 -13 -60 -13h-5q-39 1 -100 13q-87 16 -135 22q-33 4 -57 5q-11 0 -21 -1 q-30 -3 -41 -14.5t-11 -33.5q4 -59 56 -117q32 -41 58 -51q19 -7 53 -7q14 0 30 1q23 2 39 2q24 0 34 -4q18 -8 21 -39q1 -5 1 -11q0 -40 -51 -84q-58 -52 -114 -51q-92 2 -189 115t-97 217q0 78 -45 100q-45 26 -45 79q0 60 53 93zM272 886q4 -46 39 -63q37 -19 154 -35 q66 -9 99 -9q25 0 30 5q5 6 5 21q-1 34 -25 115q-36 118 -66 151q-38 43 -78 43q-16 0 -30 -6q-54 -22 -105 -123q-24 -46 -24 -87q0 -6 1 -12z" />
<glyph unicode="f" horiz-adv-x="919" d="M20 311q8 63 86 103q33 18 49.5 26.5t32 23.5t18.5 25.5t2 38t-6 51t-18 72.5q-33 145 -33 286.5t33 280.5q66 277 224 375q76 45 149 45q68 0 114 -62.5t117 -256.5q66 -182 93 -232q21 -36 21 -76q0 -24 -8 -51q-22 -67 -69 -88q-16 -6 -32 -6q-32 0 -66 27 q-27 27 -27 113q0 80 -34.5 213t-67.5 186q-37 54 -71 54q-14 0 -27 -8q-47 -30 -121 -185q-76 -164 -88 -298q-2 -27 -2 -55q0 -108 37 -223q16 -49 25 -73.5t25.5 -46t28 -28.5t40 -8.5t55 5t80.5 18.5q120 29 186 29h14q66 -4 74 -45q1 -6 1 -11q0 -39 -49 -77 q-56 -43 -144 -58q-115 -14 -140 -39q-9 -9 -9 -23q0 -23 26 -59q131 -189 131 -316v-7q-3 -74 -58 -74q-10 0 -22 2q-23 6 -47 19q-72 33 -72 82q0 47 -35 121.5t-84 131.5l-53 62l-104 -35q-72 -28 -114 -28q-14 0 -25 4q-37 10 -37 60q0 7 1 15z" />
<glyph unicode="g" horiz-adv-x="909" d="M33 319q23 80 83 130.5t148 64.5q80 12 88 39q4 8 -10 12q-10 4 -27 4q-14 0 -44.5 19.5t-57.5 46.5q-43 43 -54.5 76.5t-11.5 113.5q0 203 118 355.5t302 191.5q51 11 88 11q60 0 84 -29q25 -33 47 -404q23 -446 101 -692q4 -15 4 -27q0 -11 -3 -18q-7 -16 -34 -31 q-29 -16 -56.5 -6t-88.5 57q-104 86 -160.5 109t-169.5 23q-129 0 -162 -31q-13 -12 -13 -29q0 -29 34 -74q33 -45 33 -82q0 -13 -5 -26q-16 -47 -88 -64q-19 -5 -36 -5q-60 0 -96 64q-27 47 -27 107q0 44 14 94zM284 853q9 -60 47 -90t96 -35q7 -1 13 -1q53 0 117 35 q61 33 77 84q12 41 12 150q0 28 -1 61l-6 172h-68q-55 0 -146 -82t-122 -162q-21 -55 -21 -103q0 -15 2 -29zM537 504q96 -31 127 -41q7 -3 12 -3q8 0 12 8q3 6 3 21t-3 37q-4 61 -34 79q-10 7 -23 7q-23 0 -51 -20q-37 -23 -84 -23q-52 0 -52 -16q0 -24 93 -49z" />
<glyph unicode="h" horiz-adv-x="845" d="M23 150q-2 6 -2 24q0 30 6 94q10 102 30 219q99 611 103 953v198h88q76 0 83 -36q1 -5 1 -14q0 -51 -33 -222q-10 -61 -13 -86t-6.5 -50.5t4 -35.5t14.5 -19.5t28 -25.5q20 -18 69 -100t99 -181q111 -229 231 -358q81 -86 95 -114q7 -13 6 -27q0 -18 -9 -39 q-27 -54 -75 -54h-8q-54 5 -118 72q-51 53 -133 173t-125 202q-12 23 -26.5 36t-24.5 11q-27 -10 -56.5 -132t-43.5 -286q-6 -72 -17.5 -135t-19.5 -74q-23 -29 -72 -29h-8q-55 2 -67 36z" />
<glyph unicode="i" horiz-adv-x="407" d="M22 437q4 46 12.5 97.5t26.5 143.5q59 297 60 340q-1 53 22 106q19 48 61 58q9 2 18 2q31 0 52 -29q23 -27 35 -395q4 -72 5 -115t1 -92t-1 -74.5t-5 -55.5t-9 -42t-16.5 -27.5t-21.5 -19.5t-28.5 -9.5t-36 -5.5h-45.5q-43 0 -66 2.5t-40 16.5q-16 14 -22 34q-3 12 -4 33 q1 14 2 32zM222 1512q-9 21 -9 40q0 33 27 60q26 26 74 26h6q53 -2 65 -28q5 -14 5 -29q0 -31 -20 -69q-28 -56 -63 -56q-61 0 -85 56z" />
<glyph unicode="j" horiz-adv-x="1081" d="M22 978q3 34 52 56.5t135 26.5q143 8 364.5 70.5t309.5 119.5q92 60 131 60q1 0 2 -1q39 -1 45 -73q2 -12 2 -23q0 -42 -25 -64q-30 -28 -184 -93q-4 -4 -14 -8q-37 -14 -52.5 -20.5t-36 -21t-25.5 -18.5t-10 -23.5t-3 -28.5t11 -40t18.5 -50.5t29.5 -66.5q4 -14 8 -20 q102 -246 120 -422q4 -38 4 -74q0 -134 -52 -250q-79 -179 -190 -179q-10 0 -21 2q-125 18 -264 245q-59 94 -168 145q-23 10 -57.5 26.5t-56 26t-29.5 13.5q-37 18 -42 65v12q0 39 27 62q20 18 57 9t130 -56q94 -47 144 -90t120 -139q98 -135 146 -150q7 -3 15 -3 q41 0 85 73q41 66 43 136v7q0 69 -35 197q-29 117 -87.5 240.5t-118.5 200.5q-54 68 -85 68q-4 0 -8 -1q-43 -14 -199 -35q-88 -12 -126 -12h-10q-36 2 -63 26q-38 38 -38 70q0 2 1 5z" />
<glyph unicode="k" horiz-adv-x="989" d="M45 162q-24 21 -24 81q0 112 85 359q78 225 105 342q39 143 59 166q24 26 43 26h3q20 -3 40 -42q9 -16 9 -39q0 -13 -3 -29q-8 -43 -40 -137q-49 -127 -49 -172q0 -18 8 -23q3 -1 7 -1q39 0 204 122q8 6 18 12q196 147 262 185q48 29 80 29q12 1 20 -3q31 -12 30 -53v-7 q-3 -46 -38 -60q-70 -29 -317 -209q-53 -40 -53 -68q0 -8 4 -16q20 -33 172 -129q106 -68 203.5 -166.5t97.5 -139.5q0 -36 -30 -36q-10 0 -23 4q-57 16 -263 137q-272 160 -325 160q-59 0 -105.5 -39t-58.5 -103q-12 -74 -49 -127q-23 -33 -36 -38q-3 -1 -6 -1 q-12 0 -30 15z" />
<glyph unicode="l" horiz-adv-x="321" d="M20 558v22q0 84 15 268q38 547 155 684q34 35 52 36h1q18 0 44 -32q17 -22 17 -42q0 -21 -23 -73q-29 -59 -67 -243.5t-44 -290.5q-2 -48 -2 -85q0 -68 7 -98q11 -46 61 -71q64 -32 64 -71t-60 -113q-67 -81 -118 -81q-47 0 -81 70q-19 41 -21 120z" />
<glyph unicode="m" horiz-adv-x="1304" d="M20 333q0 21 22 90q24 75 56 157q168 424 168 460q0 23 23 86q15 34 31 46q12 9 34 9q8 0 17 -1q39 -6 74.5 -53.5t119.5 -204.5q133 -250 150 -254h2q19 0 75 122q60 130 76 211q22 100 46 131q16 21 46 21q13 0 29 -4q76 -18 96.5 -57t32.5 -189q16 -207 42 -336 t75 -248q50 -124 50 -189q0 -73 -62 -73q-109 0 -215 430q-20 82 -42 144.5t-32 66.5q-12 6 -27.5 -17.5t-25.5 -62.5q-29 -113 -76 -206t-74 -93q-29 0 -75 71t-144 265q-39 75 -75 129q-35 52 -43 52h-1q-41 -14 -117.5 -188.5t-76.5 -252.5q0 -68 -70 -102 q-30 -15 -53 -15q-27 0 -43 21q-13 16 -13 34z" />
<glyph unicode="n" horiz-adv-x="655" d="M20 401q4 88 52.5 275.5t79.5 228.5q18 29 145 29q72 0 107.5 -11.5t66.5 -41.5q51 -51 97 -177t63 -251q5 -49 5 -81q0 -20 -2 -34q-5 -35 -32 -68q-31 -37 -55 -37q-48 0 -64 152q-2 18 -2 37q-8 90 -24.5 135t-63.5 102q-68 85 -94 85q-2 0 -4 -1q-18 -4 -46 -78.5 t-87 -277.5q-18 -66 -34.5 -84t-51.5 -18q-42 0 -50 16q-7 13 -6 70v30z" />
<glyph unicode="o" horiz-adv-x="620" d="M23 698q-1 18 -1 34q0 82 32 152q40 82 118 122q55 28 103 27q9 -1 19 -1q56 -6 157 -55q82 -41 111.5 -82t37.5 -129q2 -22 2 -40q0 -33 -7 -51q-11 -28 -67.5 -83t-94.5 -68.5t-152 -17.5q-31 -2 -58 -2q-99 0 -139 30q-50 38 -61 164zM184 710q28 -50 129 -51 q101 0 101 32q0 18 -35 38q-18 10 -31.5 28.5t-13.5 35.5q0 40 -27 67q-27 25 -44 25h-5q-18 -4 -47 -47q-36 -51 -36 -91q-1 -20 9 -37z" />
<glyph unicode="p" horiz-adv-x="489" d="M26 -150q-5 4 -5 13q0 14 8 39q9 46 9 308q0 87 -1 198q-3 287 -3 409q0 62 1 82q2 61 14 90q13 38 38 38t60 -38q59 -63 111 -194q47 -113 127 -250q86 -151 86 -229q0 -81 -96 -187q-100 -106 -150 -106q-31 0 -40 -16.5t-9 -74.5q0 -68 -11 -80t-71 -12q-59 0 -68 10z M184 322q-3 -18 -3 -33q0 -43 27 -55q9 -4 18 -4q31 0 71 40l49 49l-57 103q-52 95 -73 95q-12 0 -15 -28q-2 -12 -2 -32q0 -53 -15 -135z" />
<glyph unicode="q" horiz-adv-x="811" d="M25 717q10 131 73.5 219t198.5 156q92 47 141 58q32 7 77 7q25 0 54 -2q176 -10 211 -100q10 -27 10 -66q0 -92 -57 -250q-72 -199 -98.5 -314.5t-30.5 -236.5q-3 -39 -3 -68q0 -23 2 -40q5 -35 14.5 -42t44.5 -11q66 -8 90 -42q12 -17 12 -39t-12 -48q-16 -37 -41 -47.5 t-101 -10.5q-78 0 -99.5 10.5t-37.5 51.5q-10 26 -10 101q0 62 7 159q15 213 40 280q14 35 -23 35q-31 -2 -110 -24q-52 -15 -96 -15q-31 0 -57 8q-66 17 -134 80q-53 47 -64 76q-5 16 -5 48q0 27 4 67zM160 731q4 -23 24.5 -53.5t46.5 -48.5q43 -31 69 -34h8q28 0 91 17 q111 29 146 62q29 27 57.5 116t36.5 177q1 12 1 21q0 30 -10 38q-12 10 -75 16q-9 1 -19 1q-78 0 -164 -44q-96 -49 -157 -125q-56 -70 -56 -131q0 -6 1 -12z" />
<glyph unicode="r" horiz-adv-x="686" d="M22 1144q2 34 31 56q35 25 66 27h6q30 0 80 -19q31 -12 47 -36.5t24 -77.5q12 -76 119 -217.5t168 -159.5q39 -12 78 -79q29 -49 29 -75q0 -9 -4 -16q-12 -23 -82 -23q-41 0 -84 27t-119 100q-57 53 -98 84t-45 23q-12 -23 -29 -217q-8 -111 -20.5 -162t-34.5 -72 q-28 -25 -47 -25q-20 0 -29 27q-16 51 -17 236q0 242 -24 434q-16 115 -16 155q1 6 1 10z" />
<glyph unicode="s" horiz-adv-x="620" d="M22 654q-2 8 -1 16q0 22 12 49q19 39 39 47q14 5 45 5q16 0 37 -1q90 -8 118 -45q10 -14 10 -29q0 -27 -30 -59q-30 -33 -29.5 -60t29.5 -49q34 -26 78 -25q29 0 63 11q35 14 64 41q57 57 57 80q0 35 -69.5 101.5t-143.5 103.5q-117 59 -191.5 126.5t-74.5 114.5 q0 63 20.5 98t73.5 62q58 30 116 29.5t117 -29.5q55 -30 71 -30l3 1q12 4 43 64q32 58 56 58q5 0 9 -2q28 -12 34 -95q1 -15 1 -29q1 -106 -53 -156q-27 -25 -57 -24q-37 0 -78 39q-55 51 -123 61q-27 5 -44 5q-30 0 -30 -16q0 -2 1 -5q6 -37 116 -96q113 -63 207 -154 q70 -66 79 -92q4 -13 4 -40q0 -30 -5 -79q-14 -129 -34.5 -167t-96.5 -74q-90 -48 -156 -48q-30 0 -55 10q-80 32 -184 193q-42 61 -48 89z" />
<glyph unicode="t" horiz-adv-x="835" d="M20 966q0 44 14.5 59t65.5 28q84 23 99 39q16 14 92 231q73 213 102 266q29 49 105 49q59 0 63 -14q1 -2 1 -6q0 -32 -70 -176l-23 -49q-57 -121 -57 -170q0 -27 18 -31q20 -4 59 10q59 23 173 39q50 6 78 6q17 0 25 -2q23 -6 40 -39q12 -25 12 -45q0 -7 -1 -13 q-5 -24 -42 -81q-49 -72 -89 -83q-8 -2 -16 -2q-34 0 -73 36q-30 25 -52 27h-3q-24 0 -84 -21l-95 -35l-28 -182q-27 -199 -27 -320q-2 -111 -28.5 -156.5t-106.5 -68.5q-14 -5 -25 -5q-32 0 -38 40q-1 8 -1 20q0 62 27 213q30 175 30 258q0 18 -1 31q-4 53 -16.5 65.5 t-59.5 14.5q-45 0 -56.5 11.5t-11.5 55.5z" />
<glyph unicode="u" horiz-adv-x="741" d="M22 814q4 184 44 235q29 37 43 40t38 -20q27 -20 31 -55q1 -9 1 -21q0 -38 -9 -112q-3 -44 -3 -79q-1 -72 13 -100q20 -44 101 -43q178 0 266 267q46 147 71 184q19 22 39 22q29 0 58 -47q8 -16 8 -39q0 -16 -4 -36q-10 -48 -51 -174q-68 -194 -73 -310v-20 q0 -105 46 -193q36 -62 36 -102q0 -61 -83 -70q-7 -1 -13 -1q-21 0 -35 16q-18 20 -44 84q-47 106 -47 182q1 72 -21 86q-8 5 -23 5q-25 0 -69 -15q-36 -13 -77 -13q-39 -1 -82 11q-89 24 -126 79q-36 50 -36 209q1 15 1 30z" />
<glyph unicode="v" horiz-adv-x="825" d="M27 1323q3 8 25 13q12 3 25 3q10 0 21 -2q53 -6 72.5 -56t22.5 -183q0 -94 45 -256t79 -199q14 -16 40 3.5t81 88.5q115 143 210 229q84 77 117 77q4 0 7 -1q35 -14 35 -55q0 -13 -3 -27q-13 -64 -81 -155q-86 -106 -172 -285q-76 -164 -113 -196q-27 -23 -79 -23 q-15 0 -31 2q-74 8 -90 41q-60 114 -150 526q-68 311 -68 412q0 32 7 43z" />
<glyph unicode="w" horiz-adv-x="1232" d="M27 889q23 41 65 43h4q39 0 72 -37q37 -47 96 -176q35 -80 57.5 -100.5t47 9t65.5 126.5q20 47 44 82.5t38 42.5h3q15 0 69 -30q60 -34 133 -87q43 -31 64.5 -47.5t48 -32.5t39 -21.5t31 -4.5t25.5 7.5t23.5 24t25.5 33.5t30 51q38 66 108 146q52 54 76 54q3 0 6 -1 q17 -6 17 -51q1 -15 -1 -34q-8 -77 -34 -110q-27 -29 -107 -182q-41 -78 -69.5 -114t-68.5 -43q-9 -2 -19 -2q-32 -1 -67 17q-46 22 -126 80q-145 104 -158 105q-16 0 -72.5 -102.5t-56.5 -133.5q0 -16 -16.5 -35.5t-40.5 -29.5q-19 -8 -35 -10h-6q-12 0 -28 7 q-18 9 -35 26.5t-40.5 55.5t-49 85t-64.5 121q-73 135 -91 188q-10 29 -10 51q0 17 7 29z" />
<glyph unicode="x" horiz-adv-x="1062" d="M20 263q0 30 28 67q30 39 85 73q109 70 199 152l90 82l-143 133q-76 72 -108 114t-32 74q1 62 15 72q17 17 50 17q10 1 22 -1q50 -8 73 -36q27 -31 159 -133.5t144 -102.5q10 0 141 113q158 137 228 137q34 0 47 -31q8 -18 8 -47q0 -41 -61.5 -96t-149.5 -94 q-76 -33 -77 -73v-1q0 -40 71 -113q51 -53 84 -71q27 -14 59 -14q7 0 15 1q43 2 58 -6t19 -37q1 -10 1 -21q1 -49 -29 -114q-36 -80 -72 -80q-16 0 -68.5 38t-107.5 89q-43 41 -58.5 55.5t-48 40t-40 32.5t-34 17.5t-30.5 10.5t-29.5 -6t-33 -13.5t-37 -29t-43 -34.5 t-54.5 -50q-123 -113 -187 -147q-42 -23 -78 -23q-19 0 -36 6q-39 15 -39 50z" />
<glyph unicode="y" horiz-adv-x="622" d="M20 138v6q0 17 13 44q25 57 117 72q28 4 54 4q64 0 124 -24q55 -24 81 -24q15 0 21 7q11 11 11 53q0 33 -7 86q-10 82 -21.5 98.5t-54.5 16.5q-82 0 -118.5 32t-87.5 144q-51 111 -63 167q-4 19 -4 33q0 29 15 42q19 19 41 19q16 0 33 -10q41 -25 76 -101 q53 -106 92 -128q12 -7 26 -7q29 0 66 34q48 44 75 44q15 0 23 -13q27 -41 39 -248q2 -39 12.5 -198.5t14.5 -210.5q7 -78 7 -116q0 -16 -1 -24q-4 -32 -31 -40q-6 -3 -13 -3q-34 0 -91 66q-63 82 -153 118q-52 21 -98 21q-34 0 -64 -12q-39 -12 -61 -12h-5q-22 2 -45 24 q-20 23 -23 40z" />
<glyph unicode="z" horiz-adv-x="962" d="M24 800q12 81 44 107q71 61 321 94q125 17 205 17q134 0 143 -47q3 -15 3 -32q0 -39 -18 -83q-24 -62 -104 -178q-41 -59 -67.5 -108.5t-20.5 -55.5q18 -14 125 -14q74 0 96.5 10t36.5 49q10 33 28 44t46 7q34 -4 58 -53q26 -51 25 -103q0 -47 -23 -77q-35 -33 -368 -43 q-83 -2 -147 -2q-192 0 -210 22q-17 19 -17 44q0 15 6 33q16 46 66 79q51 32 126 138q60 84 60 112q0 7 -4 10q-9 10 -44 10q-22 0 -56 -4q-86 -10 -113 -33q-31 -25 -51 -75q-18 -53 -65 -53l-1 1q-48 0 -69 54q-15 32 -15 77q0 24 4 53z" />
<glyph unicode="{" horiz-adv-x="817" d="M28.5 874.5q-18.5 51.5 19.5 96.5t151 102l100 53l2 160q6 156 57 256q35 66 57.5 81t86.5 15h88l-58 -73q-53 -72 -81 -168q-16 -57 -15.5 -88t25.5 -76q43 -84 30.5 -130t-96.5 -97q-14 -8 -41 -25q-111 -68 -120 -87.5t49 -70.5q14 -12 22 -20l96 -86l9 -217 q20 -383 204 -496q86 -57 129 -104l56 -60h-125q-74 0 -111 11.5t-71 42.5q-102 94 -173 276t-73 354q0 70 -17.5 104t-95.5 111q-86 84 -104.5 135.5z" />
<glyph unicode="|" />
<glyph unicode="}" horiz-adv-x="620" d="M20 1640l125 -6q92 -6 117 -22.5t80 -110.5q74 -119 74 -229q0 -74 14 -102.5t78 -77.5q182 -143 22 -308l-67 -69l35 -109q43 -119 24.5 -238.5t-106.5 -289.5q-92 -186 -125 -215q-35 -25 -115 -19l-86 9l82 98q72 82 146.5 230.5t74.5 203.5q0 45 -45 166 q-47 119 -42 164t69 119l74 81l-101 86q-72 61 -83 87t-1 102q14 102 -12.5 167t-124.5 171z" />
<glyph unicode="~" horiz-adv-x="1259" d="M39 973q37 73 176 233q199 227 207 228q25 0 61.5 -30t36.5 -52q0 -39 53.5 -141.5t118 -189.5t86.5 -87q12 0 65.5 40t114.5 95q150 137 168 137q20 0 76 -55q47 -51 37 -89t-72 -38q-31 0 -79 -37t-134 -123q-66 -68 -123 -113.5t-77 -45.5q-45 0 -125 120 q-219 336 -248 336q-8 0 -49 -45t-88 -106q-66 -82 -103 -113t-63 -29q-86 12 -39 105z" />
<glyph unicode="&#xa2;" />
<glyph unicode="&#xa3;" horiz-adv-x="1206" d="M33.5 819q29.5 45 87.5 47q57 0 198 31q4 0 11 2q33 6 46 9t31.5 10.5t23.5 10.5t11.5 17.5t6.5 22.5t-3.5 33.5t-7.5 43t-14 58.5q-4 14 -6 22q-64 268 94 426q59 59 92 72.5t121 13.5q133 0 193 -32q57 -29 127.5 -120t112.5 -182.5t24 -121.5q-14 -23 -34 -21 t-43.5 26.5t-45.5 69.5q-90 172 -215 238q-41 23 -70 23t-84 -19q-121 -39 -147.5 -158.5t49.5 -271.5l10 -20q14 -29 20.5 -41.5t21.5 -24.5t23.5 -13t39 0t53 6t82.5 17q27 4 41 8q84 16 96 3q12 -23 -75 -95.5t-171 -111.5q-66 -29 -87 -49.5t-15 -49.5q2 -27 31.5 -45 t103.5 -41q174 -51 267 -138t93 -193q0 -43 25 -69t10 -52q-6 -8 -27.5 3t-58.5 42t-86 78q-90 84 -148.5 122.5t-129.5 59.5q-123 35 -138 35q-10 0 -67 -94q-57 -96 -127 -162t-109 -58q-55 10 -47 59.5t78 125.5q94 104 154 235q68 150 -27 139q-6 0 -14 -2 q-33 -10 -197 -28q-92 -8 -127 -4t-53 24q-33 39 -3.5 84z" />
<glyph unicode="&#xa7;" />
<glyph unicode="&#xad;" horiz-adv-x="741" d="M20 742q4 54 41 77q43 27 326 10.5t315 -47.5q23 -20 21 -32.5t-31.5 -42t-87 -37.5t-244.5 -13q-285 -8 -313 13q-31 18 -27 72z" />
<glyph unicode="&#xbf;" />
<glyph unicode="&#xc0;" />
<glyph unicode="&#xc1;" />
<glyph unicode="&#xc2;" />
<glyph unicode="&#xc4;" />
<glyph unicode="&#xc7;" />
<glyph unicode="&#xc8;" />
<glyph unicode="&#xc9;" />
<glyph unicode="&#xca;" />
<glyph unicode="&#xcb;" />
<glyph unicode="&#xce;" />
<glyph unicode="&#xcf;" />
<glyph unicode="&#xd1;" />
<glyph unicode="&#xd3;" />
<glyph unicode="&#xd4;" />
<glyph unicode="&#xd6;" />
<glyph unicode="&#xd9;" />
<glyph unicode="&#xda;" />
<glyph unicode="&#xdb;" />
<glyph unicode="&#xdc;" />
<glyph unicode="&#xdf;" />
<glyph unicode="&#xe0;" />
<glyph unicode="&#xe1;" />
<glyph unicode="&#xe2;" />
<glyph unicode="&#xe4;" />
<glyph unicode="&#xe7;" />
<glyph unicode="&#xe8;" />
<glyph unicode="&#xe9;" />
<glyph unicode="&#xea;" />
<glyph unicode="&#xeb;" />
<glyph unicode="&#xee;" />
<glyph unicode="&#xef;" />
<glyph unicode="&#xf3;" />
<glyph unicode="&#xf4;" />
<glyph unicode="&#xf6;" />
<glyph unicode="&#xf9;" />
<glyph unicode="&#xfa;" />
<glyph unicode="&#xfb;" />
<glyph unicode="&#xfc;" />
<glyph unicode="&#x2000;" horiz-adv-x="820" />
<glyph unicode="&#x2001;" horiz-adv-x="1640" />
<glyph unicode="&#x2002;" horiz-adv-x="820" />
<glyph unicode="&#x2003;" horiz-adv-x="1640" />
<glyph unicode="&#x2004;" horiz-adv-x="546" />
<glyph unicode="&#x2005;" horiz-adv-x="410" />
<glyph unicode="&#x2006;" horiz-adv-x="273" />
<glyph unicode="&#x2007;" horiz-adv-x="273" />
<glyph unicode="&#x2008;" horiz-adv-x="205" />
<glyph unicode="&#x2009;" horiz-adv-x="328" />
<glyph unicode="&#x200a;" horiz-adv-x="91" />
<glyph unicode="&#x2010;" horiz-adv-x="741" d="M20 742q4 54 41 77q43 27 326 10.5t315 -47.5q23 -20 21 -32.5t-31.5 -42t-87 -37.5t-244.5 -13q-285 -8 -313 13q-31 18 -27 72z" />
<glyph unicode="&#x2011;" horiz-adv-x="741" d="M20 742q4 54 41 77q43 27 326 10.5t315 -47.5q23 -20 21 -32.5t-31.5 -42t-87 -37.5t-244.5 -13q-285 -8 -313 13q-31 18 -27 72z" />
<glyph unicode="&#x2012;" horiz-adv-x="741" d="M20 742q4 54 41 77q43 27 326 10.5t315 -47.5q23 -20 21 -32.5t-31.5 -42t-87 -37.5t-244.5 -13q-285 -8 -313 13q-31 18 -27 72z" />
<glyph unicode="&#x2013;" horiz-adv-x="1059" d="M19.5 742q5.5 54 59.5 77q63 27 475 10.5t458 -47.5q34 -20 31 -32.5t-46 -42t-126.5 -37.5t-356.5 -13q-414 -8 -455 13q-45 18 -39.5 72z" />
<glyph unicode="&#x2014;" horiz-adv-x="2084" d="M20.5 742q11.5 54 119.5 77q125 27 948.5 10.5t916.5 -47.5q67 -20 61.5 -32.5t-91.5 -42t-253.5 -37.5t-711.5 -13q-830 -8 -911 13q-90 18 -78.5 72z" />
<glyph unicode="&#x2019;" horiz-adv-x="389" d="M25 815q-25 41 61 317.5t145 348.5q47 55 89 60t51 -44q8 -39 -70 -205q-76 -156 -94 -227q-41 -180 -115 -250q-43 -39 -67 0z" />
<glyph unicode="&#x201c;" horiz-adv-x="1630" d="M23.5 456.5q-11.5 49.5 23.5 84.5q39 41 85 17.5t87 -103.5q47 -86 44 -176.5t-52 -143.5q-63 -70 -98 -37q-37 39 10 131l39 76l-72 57q-55 45 -66.5 94.5zM392 142.5q7 27.5 63 39.5q57 14 60 67.5t-50 117.5q-41 49 -54.5 105t11.5 81q18 18 92 15t86 -21 q18 -31 23.5 -194t-11.5 -206q-20 -49 -75.5 -66.5t-106.5 9.5q-45 25 -38 52.5zM1067 463q0 78 16 90q18 20 80 15t94 -29q41 -31 59.5 -150t-3.5 -190q-27 -78 -52.5 -104.5t-70.5 -26.5q-119 0 -23 116q59 70 55.5 104t-75.5 62q-51 23 -65.5 42.5t-14.5 70.5z M1397 447.5q-4 21.5 8 60.5q14 35 32.5 48t57.5 13q76 0 96.5 -45t20.5 -205t-26.5 -228t-88.5 -68q-51 0 -56 37.5t38 97.5q41 55 31.5 98t-78.5 133q-31 37 -35 58.5z" />
<glyph unicode="&#x201d;" horiz-adv-x="796" d="M23.5 1278q19.5 129 132.5 264q104 123 172 39q18 -23 3.5 -49.5t-81.5 -97.5q-84 -92 -95.5 -121t25.5 -62q29 -25 34 -57.5t-11.5 -55t-45 -33.5t-65.5 5q-88 39 -68.5 168zM429 1210q-5 39 1 82q35 184 156 258q57 35 118.5 37t71.5 -33q6 -12 -18.5 -35.5 t-63.5 -48.5q-96 -61 -118.5 -109t22.5 -95q45 -49 46 -86t-40 -74q-27 -23 -55.5 -25t-52 14.5t-43 46t-24.5 68.5z" />
<glyph unicode="&#x2022;" />
<glyph unicode="&#x202f;" horiz-adv-x="328" />
<glyph unicode="&#x205f;" horiz-adv-x="410" />
<glyph unicode="&#x20ac;" horiz-adv-x="1103" d="M20 678q-4 47 70 92q33 20 74 31q123 33 96 53q-14 10 -76 14q-74 8 -104.5 43t2.5 76q31 37 141 37q98 0 124 31.5t46 173.5q31 256 94 356q35 53 103 53q63 0 59 -16q-72 -139 -103.5 -232.5t-39.5 -189.5l-17 -156l60 17q66 12 235 29l172 14l35 119q20 78 20.5 123 t-20.5 145l-35 147h129v-278q0 -172 -7 -238.5t-34 -109.5q-16 -27 -25 -38t-37 -19.5t-59.5 -10.5t-111.5 -2q-340 -4 -340 -68q0 -20 45 -26t172 -6q76 0 115 -1t64.5 -5.5t31.5 -11.5t6 -21q-2 -70 -46 -89.5t-197 -19.5h-201l-6 -114q-8 -127 24.5 -234.5t85.5 -138.5 q61 -33 127 -10.5t166 110.5q115 102 137 103q63 0 9 -113q-63 -129 -177 -223q-35 -27 -63 -41q-66 -35 -140.5 -31t-142.5 43q-37 25 -54 41t-33.5 62.5t-24 102.5t-21.5 181l-24 240l-68 -4q-55 -4 -139 -19q-92 -20 -97 29z" />
<glyph unicode="&#x25fc;" horiz-adv-x="1044" d="M0 0v1044h1044v-1044h-1044z" />
</font>
</defs>
</svg>
